<svg xmlns="http://www.w3.org/2000/svg" data-name="Layer 1" width="500" height="500" style=""><rect id="backgroundrect" width="100%" height="100%" x="0" y="0" fill="none" stroke="none"/>
  <title>icons-rgb</title>
  
<g class="currentLayer" style=""><title>Layer 1</title><path d="M213.81510339486496,498.67479357122374 l-36.99562735557556,-33.154806790761384 L250.30547939050095,399.60028177652435 L110.42102648723024,274.2006521468237 L36.878884096025395,340.12035715076166 L-0.11674325955018659,306.90266187974464 l92.05399082899095,-82.49710839931865 a26.146757876873014,23.432247743242964 0 0 1 36.98159259557724,0 l5.529695439338684,4.955612244142635 c32.01328755617141,-47.27955945617301 34.24481439590454,-77.10127679338667 34.03429299592972,-86.1823733422978 a51.05845687389374,45.75765823398707 0 0 1 29.543169796466827,-84.91202604113434 A51.044422113895415,45.74508053793595 0 0 1 220.83248339402573,143.29199164673093 c0.33683423995971734,20.577110739637945 -6.091085839271545,61.63071065050485 -48.40588723421097,120.14215268033108 l4.841992199420929,4.339305137637588 c98.24331998825073,-93.2636162190803 124.90936398506165,-163.86222415403617 131.29517978429794,-186.50207704605836 A51.072491633892064,45.7702359300382 0 1 1 359.7766073774089,90.9939314661597 c-7.017379999160767,25.633344552189566 -36.6307235956192,106.91041643454923 -145.45625262260438,209.94690248535244 l2.231526839733124,1.9998536721286277 c99.23978794813155,-87.98098387760847 145.77905210256577,-121.13579066836985 162.66286838054657,-132.0658085367961 a51.05845687389374,45.75765823398707 0 1 1 77.66836183071138,38.07268594675065 a51.92861199378967,46.537475389156725 0 0 1 -49.86550227403641,1.7357220550550347 c-16.139973998069763,10.741352427659416 -59.95649471282959,42.51261265279722 -153.47010058164597,125.44994041390518 l3.7893851995468144,3.3959779338033287 C293.0553583453883,312.851912111926 328.6334749411334,294.3249658286212 363.01863693702114,284.26280898772245 c21.374939477443696,-6.213381849254979 37.472809195518494,-7.5466176306740635 46.21646467447281,-7.647239199083051 a50.988283073902124,45.69476975373145 0 0 1 81.13494755029679,0.2515539210224688 h0 a50.76372691392899,45.493526616913485 0 0 1 9.824331998825073,33.89689085777767 a51.044422113895415,45.74508053793595 0 0 1 -96.76967018842697,13.194003157628488 c-16.939955317974093,1.811188231361775 -55.92851859331131,10.351443850074592 -109.02201566696168,48.82661607046119 l11.396225118637084,10.213089193512232 a26.202896916866305,23.482558527447463 0 0 1 0,33.154806790761384 zm-25.164324676990507,-33.154806790761384 L213.81510339486496,488.02148501592217 l86.13132210969924,-77.20189836179567 a17.824145197868347,15.973673984926767 0 0 0 0,-22.551809019664326 L282.0100022267092,372.3066813455865 l3.5367595195770263,-2.6287384746847993 c60.16701611280441,-44.587932501232586 104.09581490755082,-52.19743861216227 120.19368462562561,-53.404897433070126 l3.0876471996307377,-0.2389762249713456 l1.1508503198623665,2.578427690480305 a42.69373991489411,38.26135138751751 0 1 0 73.72459427118302,-37.16709183106976 h0 A42.46918375492096,38.06010825069953 0 0 0 455.5217400859584,266.65403451614964 a42.58146183490753,38.16072981910852 0 0 0 -40.700803995132446,15.935940896773397 l-1.263128399848938,1.5973673984926764 h-2.1753877997398376 c-7.5507008790969845,0.10062156840898766 -23.578396797180176,0.8678610275275187 -45.72524807453155,7.307641405702719 c-34.30095343589783,9.961535272489764 -69.9352090716362,28.802923957072675 -105.89226418733597,55.995902819601554 L256.7755037497272,349.66682845356434 l-15.143506038188933,-13.583911735213315 l2.9753691196441654,-2.653893866787045 c100.5029163479805,-89.30164196297642 145.06327934265136,-120.82134826709176 159.5611864209175,-130.2420426093832 l2.2034573197364806,-1.4338573498280722 l2.3578396797180186,1.257769605112344 A43.50775599479675,38.99085775848266 0 0 0 452.406023366331,202.5077846554201 a42.70777467489243,38.273929083568625 0 1 0 -64.85462595224381,-30.06069356218502 l0.15438235998153696,2.087897544486491 l-1.9087273597717287,1.257769605112344 c-15.143506038188933,9.634515175160555 -61.654700672626504,42.09754868311015 -166.43821882009507,135.13476637327022 l-2.9613343596458432,2.6287384746847993 l-13.894412398338318,-12.439341394561081 l2.8069519996643066,-2.653893866787045 C318.2477525423755,192.44562781452134 346.23306397902866,109.98625250335607 352.12766317832364,87.22062265082266 l0.561390399932861,-2.138208328690985 l2.3578396797180186,-0.6163071065050493 a42.69373991489411,38.26135138751751 0 1 0 -39.15698039531708,-7.395685278060582 l1.9789011597633364,1.4841681340325656 l-0.5894599199295047,2.2514075931510957 c-5.4454868793487545,20.639999219893564 -31.40979287624359,95.678533860896 -136.9231185436249,194.9542887924133 L177.32472739922898,278.50222419630796 l-15.718931198120115,-14.074441881207127 l1.8806578397750857,-2.515539210224688 c44.39194587469101,-60.37294104539251 49.654980874061586,-101.50200713256616 48.82693003416061,-120.59494973817154 l-0.09824331998825087,-2.3520291615600835 l2.3157353997230543,-1.1068372524988634 a42.679705154895785,38.248773691466376 0 0 0 -17.12240719795227,-72.01988758873281 c-0.9543636798858655,0 -1.8806578397750857,-0.08804387235786416 -2.8069519996643066,-0.08804387235786416 A42.69373991489411,38.26135138751751 0 0 0 174.51777539956467,137.694916903981 l2.0210054397583006,0.9810602919876281 l0.1684171199798585,2.050164456333121 c0.5192861199378968,6.28884802556172 1.1368155598640444,40.7265798135377 -37.89385199546814,96.697327241037 l-2.8069519996643066,3.98712964820613 l-12.982152998447418,-11.646946543340304 a17.894318997859955,16.036562465182385 0 0 0 -12.63128399848938,-4.666325234966796 a17.65572807788849,15.822741632313287 0 0 0 -12.63128399848938,4.666325234966796 L11.714559419034876,306.90266187974464 L36.878884096025395,329.54251477176683 l73.55617715120314,-65.91970500393793 L262.1788863490809,399.60028177652435 zm261.0465359687805,-136.22902592971798 a28.46249327659607,25.507567591678335 0 0 1 -3.8174547195434574,-0.2389762249713456 a27.64847719669342,24.778061220713173 0 0 1 -23.578396797180176,-27.922485233494033 a27.77479003667831,24.891260485173284 0 0 1 31.12909767627716,-21.13052936588738 a27.592338156700134,24.727750436508682 0 0 1 23.578396797180176,27.909907537442912 h0 A27.718650996685028,24.840949700968793 0 0 1 449.6973146866549,329.2909608507444 zM449.5990713666667,287.2688783439409 a19.269725477695467,17.269176678192483 0 0 0 -2.5823958396911637,34.36226561166924 a20.210054397583008,18.111882313617752 0 0 0 2.680639159679413,0.1635100486646048 A19.32586451768875,17.319487462396975 0 0 0 468.7284492443789,306.90266187974464 h0 a19.241655957698825,17.244021286090238 0 0 0 -16.434703958034518,-19.44511809503684 A20.617062437534333,18.476635499100333 0 0 0 449.5990713666667,287.2688783439409 zM430.231102568983,194.60899153531457 a27.6344424366951,24.765483524662052 0 0 1 -14.455802798271181,-45.883435194498304 h0 a27.620407676696775,24.752905828610928 0 1 1 14.455802798271181,45.883435194498304 zm-0.08420855998992939,-42.02208250680341 a19.157447397708893,17.168555109783494 0 0 0 -10.006783878803253,2.515539210224688 h0 a19.255690717697146,17.25659898214136 0 1 0 10.020818638801574,-2.515539210224688 zm-235.37695993185045,-23.897622497134535 q-0.9262941598892224,0 -1.866623079776764,0 a27.662511956691745,24.7906389167643 0 0 1 -25.767819356918334,-26.312540138950236 h0 a27.606372916698458,24.740328132559807 0 1 1 27.620407676696775,26.413161707359222 zm-19.283760237693787,-25.884898473212036 a19.283760237693787,17.281754374243604 0 0 0 17.964492797851562,18.350858538589097 a18.94692599773407,16.979889669016643 0 0 0 13.922481918334961,-4.238683569228599 a19.255690717697146,17.25659898214136 0 0 0 -11.424294638633729,-30.186470522696254 c-0.44911231994628986,0 -0.8701551198959359,0 -1.2771631598472595,0 a19.283760237693787,17.281754374243604 0 0 0 -19.185516917705534,16.1497617296425 zm167.77152101993562,-30.38771365951423 A27.676546716690062,24.803216612815422 0 0 1 316.2688513826121,42.557223973283314 h0 a27.57830339670181,24.715172740457557 0 0 1 32.77116459608078,-19.05520951745201 A27.620407676696775,24.752905828610928 0 0 1 370.2605730961551,52.83320164705117 A27.732685756683352,24.853527397019917 0 0 1 343.27172961938277,72.47956287890598 zM324.3949774216403,44.11685828362262 a19.255690717697146,17.25659898214136 0 1 0 34.988656675815584,-5.798317879567906 a19.087273597717285,17.105666629527878 0 0 0 -12.140067398548126,-7.483729150418447 a19.452177357673644,17.432686726857085 0 0 0 -22.848589277267457,13.282047029986353 z" fill="#ffffff" id="svg_1" class="selected" fill-opacity="1" stroke-dasharray="none" stroke-width="10" filter="" stroke="#ffffff" stroke-opacity="1"/><path fill="#ffffff" fill-opacity="1" stroke="none" stroke-opacity="1" stroke-width="1" stroke-dasharray="none" stroke-linejoin="miter" stroke-linecap="butt" stroke-dashoffset="" fill-rule="nonzero" opacity="1" marker-start="" marker-mid="" marker-end="" d="M1.2048192148129715,311.44576702915384L41.5662629110476,277.7108290143906" id="svg_2"/><path fill="#ffffff" fill-opacity="1" stroke="none" stroke-opacity="1" stroke-width="1" stroke-dasharray="none" stroke-linejoin="miter" stroke-linecap="butt" stroke-dashoffset="" fill-rule="nonzero" opacity="1" marker-start="" marker-mid="" marker-end="" d="M39.15662448142166,228.31324120705864L44.57831094808006,298.79516527361767" id="svg_4"/><path fill="#ffffff" fill-opacity="1" stroke="none" stroke-opacity="1" stroke-width="1" stroke-dasharray="none" stroke-linejoin="miter" stroke-linecap="butt" stroke-dashoffset="" fill-rule="nonzero" opacity="1" marker-start="" marker-mid="" marker-end="" d="M48.79517819992549,154.81926910346718L50.60240702214492,158.43372674790612" id="svg_6"/></g><defs><filter id="f115" xmlns:inkscape="http://www.inkscape.org/namespaces/inkscape" inkscape:label="Noise fill" inkscape:menu="ABCs" inkscape:menu-tooltip="Basic noise fill texture; adjust color in Flood" color-interpolation-filters="sRGB">
            <feTurbulence numOctaves="5" baseFrequency=".02" type="fractalNoise"/>
            <feColorMatrix result="result0" values="1 0 0 0 0 0 1 0 0 0 0 0 1 0 0 0 0 0 3 -1 "/>
            <feFlood flood-opacity="1" flood-color="#91c7c3" result="result1"/>
            <feBlend in2="SourceGraphic" mode="normal" in="result1"/>
            <feComposite operator="out" in2="result0"/>
            <feComposite operator="atop" in2="SourceGraphic"/>
        </filter></defs></svg>