<?xml version="1.0"?>
<svg xmlns="http://www.w3.org/2000/svg" width="50" height="50" viewBox="0 0 50 50">
    <path d="M 25 7 C 15.925926 7 9.7912483 7.9862116 5.5527344 10.105469 C 4.6095875 10.577042 3.737471 11.139649 3.0742188 11.939453 C 2.4109664 12.739257 2 13.791667 2 15 C 2 21.166949 3.0400648 33.284257 5.0507812 39.316406 C 6.2194361 42.822371 9.6835938 43.949219 9.6835938 43.949219 C 12.835889 44.999984 18.306867 46 25 46 C 31.60198 46 37.152042 45.495796 40.363281 43.923828 C 40.448091 43.895768 43.795205 42.778449 44.949219 39.316406 C 46.959935 33.284257 48 21.166949 48 15 C 48 13.788 47.581154 12.733254 46.916016 11.933594 C 46.250877 11.133933 45.38028 10.571976 44.447266 10.105469 C 40.208752 7.9862116 34.074074 7 25 7 z M 25 9 C 33.925926 9 39.791248 10.013788 43.552734 11.894531 C 44.34772 12.292024 44.976044 12.728551 45.378906 13.212891 C 45.781768 13.69723 46 14.212 46 15 C 46 20.927051 44.864065 33.243743 43.050781 38.683594 C 42.219436 41.177629 39.683594 42.050781 39.683594 42.050781 L 39.617188 42.074219 L 39.552734 42.105469 C 37.096506 43.333581 31.532736 44 25 44 C 18.509133 44 13.164111 43.000016 10.316406 42.050781 C 10.316406 42.050781 7.7805639 41.177629 6.9492188 38.683594 C 5.1359351 33.243743 4 20.927051 4 15 C 4 14.208333 4.2140335 13.698243 4.6132812 13.216797 C 5.012529 12.735351 5.6404125 12.297958 6.4472656 11.894531 C 10.208752 10.013788 16.074074 9 25 9 z M 25 12 C 16.86225 12 12.080593 13.711304 9.1542969 14.599609 C 7.872514 14.988616 6.9879483 16.200765 7.0390625 17.550781 C 7.2394056 22.790842 9.1051859 33.23077 9.7773438 36.894531 C 9.994197 38.082707 10.917808 38.979099 12.037109 39.267578 C 14.815698 39.984237 19.866667 41 25 41 C 27.566667 41 30.352713 40.745979 32.734375 40.40625 C 35.116037 40.066521 37.024567 39.675811 38.099609 39.259766 L 38.101562 39.259766 C 39.039921 38.895627 39.995921 38.133326 40.216797 36.931641 L 40.216797 36.929688 C 40.882947 33.298967 42.758545 22.809835 42.960938 17.550781 C 43.013627 16.185255 42.112434 14.963046 40.8125 14.582031 C 38.01262 13.762329 33.141833 12 25 12 z M 25 14 C 32.856931 14 37.311818 15.641592 40.25 16.501953 C 40.690066 16.630938 40.978243 17.026135 40.960938 17.474609 C 40.773347 22.349045 38.912032 32.95999 38.25 36.568359 C 38.18487 36.922674 37.912595 37.18667 37.376953 37.394531 C 36.712264 37.651532 34.753386 38.097385 32.451172 38.425781 C 30.148083 38.754302 27.433333 39 25 39 C 20.133333 39 15.184568 38.015372 12.535156 37.332031 C 12.102457 37.220511 11.815287 36.924981 11.744141 36.535156 C 11.076298 32.894918 9.2247194 22.330548 9.0390625 17.474609 C 9.0221767 17.028626 9.298111 16.646666 9.7363281 16.513672 C 12.766032 15.593977 17.13775 14 25 14 z M 18 34 L 18 36 L 20 36 L 20 34 L 18 34 z M 24 34 L 24 36 L 26 36 L 26 34 L 24 34 z M 30 34 L 30 36 L 32 36 L 32 34 L 30 34 z" fill="#ffffff"/>
</svg>
