<?xml version="1.0"?>
<svg xmlns="http://www.w3.org/2000/svg" width="50" height="50" viewBox="0 0 50 50">
    <path style="text-indent:0;text-align:start;line-height:normal;text-transform:none;block-progression:tb;-inkscape-font-specification:Bitstream Vera Sans" d="M 2 0 C 0.9069372 0 0 0.9069372 0 2 L 0 48 C 0 49.093063 0.9069372 50 2 50 L 48 50 C 49.093063 50 50 49.093063 50 48 L 50 2 C 50 0.9069372 49.093063 0 48 0 L 2 0 z M 2 2 L 48 2 L 48 48 L 2 48 L 2 2 z M 35.90625 7.96875 A 1.0001 1.0001 0 0 0 35.78125 8 A 1.0001 1.0001 0 0 0 35.28125 9.71875 L 38.5625 13 L 29 13 A 1.0001 1.0001 0 0 0 28.90625 13 A 1.001098 1.001098 0 0 0 29 15 L 38.5625 15 L 35.28125 18.28125 A 1.016466 1.016466 0 1 0 36.71875 19.71875 L 41.5625 14.84375 A 1.0001 1.0001 0 0 0 41.84375 14.5625 L 42.40625 14 L 41.84375 13.4375 A 1.0001 1.0001 0 0 0 41.71875 13.28125 L 41.6875 13.28125 A 1.0001 1.0001 0 0 0 41.625 13.21875 L 36.71875 8.28125 A 1.0001 1.0001 0 0 0 35.90625 7.96875 z M 13.875 12 A 1.0001 1.0001 0 0 0 13.28125 12.28125 L 8.53125 17.0625 A 1.0043849 1.0043849 0 0 0 8.4375 17.125 A 1.0043849 1.0043849 0 0 0 7.96875 17.59375 A 1.0043849 1.0043849 0 0 0 7.96875 17.625 L 7.59375 18 L 8 18.40625 L 8 18.4375 A 1.0043849 1.0043849 0 0 0 8.375 18.84375 A 1.0043849 1.0043849 0 0 0 8.46875 18.90625 L 13.28125 23.71875 A 1.016466 1.016466 0 1 0 14.71875 22.28125 L 11.4375 19 L 21 19 A 1.0001 1.0001 0 1 0 21 17 L 11.4375 17 L 14.71875 13.71875 A 1.0001 1.0001 0 0 0 13.875 12 z M 35.90625 25.96875 A 1.0001 1.0001 0 0 0 35.78125 26 A 1.0001 1.0001 0 0 0 35.28125 27.71875 L 38.5625 31 L 29 31 A 1.0001 1.0001 0 0 0 28.90625 31 A 1.001098 1.001098 0 0 0 29 33 L 38.5625 33 L 35.28125 36.28125 A 1.016466 1.016466 0 1 0 36.71875 37.71875 L 41.5625 32.84375 A 1.0001 1.0001 0 0 0 41.84375 32.5625 L 42.40625 32 L 41.84375 31.4375 A 1.0001 1.0001 0 0 0 41.71875 31.28125 L 41.6875 31.28125 A 1.0001 1.0001 0 0 0 41.625 31.21875 L 36.71875 26.28125 A 1.0001 1.0001 0 0 0 35.90625 25.96875 z M 13.875 30 A 1.0001 1.0001 0 0 0 13.28125 30.28125 L 8.53125 35.0625 A 1.0043849 1.0043849 0 0 0 7.96875 35.625 L 7.59375 36 L 8 36.4375 A 1.0043849 1.0043849 0 0 0 8.46875 36.90625 L 13.28125 41.71875 A 1.016466 1.016466 0 1 0 14.71875 40.28125 L 11.4375 37 L 21 37 A 1.0001 1.0001 0 1 0 21 35 L 11.4375 35 L 14.71875 31.71875 A 1.0001 1.0001 0 0 0 13.875 30 z" fill="#ffffff"/>
</svg>
